<svg id="Layer_5" data-name="Layer 5" xmlns="http://www.w3.org/2000/svg" xmlns:xlink="http://www.w3.org/1999/xlink" viewBox="0 0 192 192"><defs><style>.cls-1{fill:#0068ab;}.cls-2{clip-path:url(#clip-path);}.cls-3{fill:#0078c3;}.cls-4{fill:#fff;}.cls-5{fill:url(#linear-gradient);}.cls-6{fill-opacity:0.7;fill:url(#linear-gradient-2);}</style><clipPath id="clip-path"><rect id="_Rectangle_" data-name="&lt;Rectangle&gt;" class="cls-1" x="20" y="20" width="152" height="152" rx="12.33" ry="12.33"/></clipPath><linearGradient id="linear-gradient" x1="96.13" y1="40.83" x2="96.13" y2="96" gradientUnits="userSpaceOnUse"><stop offset="0.95" stop-opacity="0.1"/><stop offset="1" stop-opacity="0.12"/></linearGradient><linearGradient id="linear-gradient-2" x1="97.25" y1="95.97" x2="97.25" y2="96.74" gradientUnits="userSpaceOnUse"><stop offset="0" stop-color="#fff" stop-opacity="0.1"/><stop offset="1" stop-color="#fff" stop-opacity="0"/></linearGradient></defs><title>pleco</title><rect id="_Rectangle_2" data-name="&lt;Rectangle&gt;" class="cls-1" x="20" y="20" width="152" height="152" rx="12.33" ry="12.33"/><g class="cls-2"><rect id="_Rectangle_3" data-name="&lt;Rectangle&gt;" class="cls-3" x="20" y="18" width="152" height="152" rx="12.33" ry="12.33"/><path class="cls-4" d="M48.93,140.73a10,10,0,0,1,.31-2.83,5.31,5.31,0,0,1,2.09-2.28,14.93,14.93,0,0,0,3.76-4.93,24.08,24.08,0,0,0,2.59-6.84q.25-1.6,1.48-1.6t1.79,2.22A18.73,18.73,0,0,1,61.5,129a25.92,25.92,0,0,1-3.39,13q-3.39,6-6.84,6a1.85,1.85,0,0,1-1.85-1.42A21.76,21.76,0,0,1,48.93,140.73ZM88.11,65.44A115.73,115.73,0,0,1,72.34,77.82q-7.76,5-10.1,5-1.23,0-1.23-.74a1.45,1.45,0,0,1,.74-1.23A131.76,131.76,0,0,0,77.21,68a79.19,79.19,0,0,0,9.73-11,28.72,28.72,0,0,0,3.63-6.47,14.58,14.58,0,0,0,.62-4.25q0-2.22,1.54-2.22t4.93,2.71q3.39,2.71,3.39,3.88a2.78,2.78,0,0,1-1.23,2.16,11,11,0,0,0-2.34,2l-6.16,7.52a46.25,46.25,0,0,0,9.3-1.23,26.56,26.56,0,0,0,6.65-2.22,7.36,7.36,0,0,1,3.7-1.11q1.78,0,5.79,2.34t4,3.57q0,1.23-2.83,1.85t-8.44,5.24A118.68,118.68,0,0,0,96.86,83.18Q112.51,80.6,115,79.55a11.12,11.12,0,0,1,4.19-1q1.73,0,5.12,2t4.93,3.08A2.91,2.91,0,0,1,130.75,86q0,1.29-2.16,3.14t-4.81,10a113.93,113.93,0,0,1-5.42,14q-2.77,5.79-4.37,5.79-1.11,0-2.22-1.54c-.74-1-1.44-1.54-2.09-1.54s-4.5.41-11.52,1.23-12.59,1.52-16.7,2.09q-.37,2.59-1.17,2.59a2.67,2.67,0,0,1-1.79-1,5.56,5.56,0,0,1-1.36-2.4Q73.08,102.53,71.35,97T67.9,89.53q-1.73-2-1.73-3.2t2.59-1.17q5.79,0,7.27.74,6-.61,14.79-1.85Q105,67.17,105,65.56q0-.49-1.36-.37a66.29,66.29,0,0,1-8.44.49Q90.58,65.69,88.11,65.44Zm-14,60.63a14.53,14.53,0,0,1,7.64,2.34,7.55,7.55,0,0,1,3.82,6.84q0,4.5-2.34,4.5a4,4,0,0,1-2.53-1.29,36,36,0,0,1-4.5-6.1q-3.08-4.81-3.08-5.55C73.08,126.31,73.41,126.07,74.07,126.07Zm3-36.47,4.19,26.12q4.19-.86,12.2-2.22l.12-10.72A35.28,35.28,0,0,1,89,103a14.63,14.63,0,0,1-5.18-.92q-2.47-.92-2.46-1.42t3.94-1a61.21,61.21,0,0,0,8.26-1.79q-.12-8.25-.74-10.47Q86.88,88.48,77,89.59Zm21.32,36.1a12.05,12.05,0,0,1,8.07,3.14Q110,132,110,135.68a4.81,4.81,0,0,1-.68,2.65,2.05,2.05,0,0,1-1.79,1q-2.34,0-6.65-5.92t-4.31-6.84C96.62,126,97.19,125.7,98.34,125.7ZM98,112.76a76.43,76.43,0,0,1,8.75-.86,11.18,11.18,0,0,1,3.08.25,2.75,2.75,0,0,0,.86.25q1.11,0,2.28-2.65a66.56,66.56,0,0,0,2.9-10.84,65.85,65.85,0,0,0,1.72-11.52q0-3.33-3-3.33-1,0-6.28.74t-9,1.48a3.28,3.28,0,0,1,.74,2,9.3,9.3,0,0,1-.31,2.22q-.31,1.23-.92,6A32.38,32.38,0,0,1,106,95.14a5.56,5.56,0,0,1,3.45,1c.86.66,1.29,1.23,1.29,1.73q0,2.1-12.32,4.31ZM122.12,123q1.35,0,7.39,2.28a27.24,27.24,0,0,1,9.8,6,11.54,11.54,0,0,1,3.76,8.32,10.38,10.38,0,0,1-.55,3.51q-.56,1.54-1.66,1.54t-3.7-2.46q-2.59-2.47-6.71-7.15t-6.59-7.76q-2.47-3.08-2.46-3.7T122.12,123Z"/><rect class="cls-5" x="0.25" y="0.25" width="191.75" height="95.75"/><rect class="cls-6" x="18" y="96" width="158.5" height="11.83"/></g></svg>